<svg xmlns="http://www.w3.org/2000/svg" viewBox="0 0 128 128" role="img" aria-label="BossCrafts Crest">
  <g fill="none" stroke="#D4A857" stroke-width="1.75" stroke-linecap="round" stroke-linejoin="round">
    <circle cx="64" cy="64" r="58"/>
    <circle cx="64" cy="64" r="48"/>
    <path d="M36 77h56M44 77l6-18h28l6 18M54 59l4-8h12l4 8"/>
    <path d="M64 22v74"/>
    <path d="M64 22l5 7-5 7-5-7 5-7z"/>
    <path d="M64 96l5 7-5 7-5-7 5-7z"/>
    <path d="M64 39c14 0 25 11 25 25s-11 25-25 25-25-11-25-25 11-25 25-25z" opacity="0.5"/>
  </g>
</svg>
